Coordinates
version=1
nRows=60
nColumns=12
inDegrees=yes

Units are S.I. units (second, meters, Newtons, ...)
Angles are in degrees

endheader
time	SC_y	SC_z	SC_x	AC_y	AC_z	AC_x	GH_y	GH_z	GH_yy	EL_x	PS_y
       0.0              -21.62          30.58          82.71          53.96          -12.6          3.758         -81.88           41.7         -38.27          19.68          137.0
   0.02011              -21.62          30.58           82.7          53.96          -12.6          3.756         -81.88           41.7         -38.26          19.68          137.0
   0.04022              -21.63          30.58          82.69          53.96         -12.59          3.754         -81.88          41.69         -38.25          19.68          137.0
   0.06033              -21.63          30.57          82.68          53.95         -12.59          3.753         -81.88          41.68         -38.24          19.68          137.0
   0.08044              -21.63          30.57          82.67          53.95         -12.59          3.751         -81.88          41.68         -38.23          19.68          136.9
    0.1005              -21.64          30.56          82.66          53.95         -12.58          3.748         -81.88          41.67         -38.21          19.68          136.9
    0.1207              -21.64          30.56          82.65          53.95         -12.58          3.746         -81.88          41.66          -38.2          19.68          136.9
    0.1408              -21.64          30.55          82.63          53.94         -12.58          3.744         -81.88          41.66         -38.18          19.68          136.9
    0.1609              -21.65          30.55          82.62          53.94         -12.57          3.741         -81.88          41.65         -38.16          19.68          136.9
     0.181              -21.65          30.54           82.6          53.94         -12.57          3.738         -81.87          41.64         -38.15          19.68          136.9
    0.2011              -21.65          30.53          82.59          53.94         -12.56          3.735         -81.87          41.63         -38.13          19.68          136.9
    0.2212              -21.66          30.53          82.57          53.93         -12.56          3.732         -81.87          41.62          -38.1          19.68          136.9
    0.2413              -21.66          30.52          82.55          53.93         -12.55          3.728         -81.87          41.61         -38.08          19.68          136.8
    0.2614              -21.67          30.51          82.53          53.92         -12.54          3.725         -81.87           41.6         -38.06          19.68          136.8
    0.2815              -21.67           30.5          82.51          53.92         -12.54          3.721         -81.87          41.58         -38.03          19.68          136.8
    0.3016              -21.68          30.49          82.48          53.91         -12.53          3.716         -81.86          41.57          -38.0          19.68          136.8
    0.3217              -21.69          30.48          82.45          53.91         -12.52          3.711         -81.86          41.55         -37.97          19.68          136.7
    0.3419               -21.7          30.47          82.43           53.9         -12.51          3.706         -81.86          41.54         -37.93          19.68          136.7
     0.362               -21.7          30.45          82.39           53.9          -12.5            3.7         -81.86          41.52          -37.9          19.68          136.7
    0.3821              -21.71          30.44          82.36          53.89         -12.49          3.694         -81.85           41.5         -37.85          19.68          136.7
    0.4022              -21.72          30.42          82.32          53.88         -12.48          3.687         -81.85          41.48         -37.81          19.68          136.6
    0.4223              -21.73          30.41          82.28          53.87         -12.47           3.68         -81.85          41.45         -37.76          19.68          136.6
    0.4424              -21.74          30.39          82.23          53.87         -12.45          3.671         -81.84          41.42          -37.7          19.68          136.5
    0.4625              -21.76          30.37          82.18          53.85         -12.44          3.662         -81.84           41.4         -37.64          19.68          136.5
    0.4826              -21.77          30.34          82.12          53.84         -12.42          3.651         -81.83          41.36         -37.57          19.67          136.4
    0.5027              -21.79          30.32          82.06          53.83          -12.4           3.64         -81.83          41.33          -37.5          19.67          136.4
    0.5228              -21.81          30.29          81.99          53.82         -12.38          3.627         -81.82          41.28         -37.41          19.67          136.3
    0.5429              -21.83          30.25          81.91           53.8         -12.35          3.612         -81.82          41.24         -37.32          19.67          136.2
    0.5631              -21.85          30.22          81.82          53.78         -12.33          3.596         -81.81          41.19         -37.21          19.67          136.1
    0.5832              -21.88          30.17          81.71          53.76          -12.3          3.577          -81.8          41.13         -37.09          19.67          136.0
    0.6033              -21.91          30.13           81.6          53.74         -12.26          3.556         -81.79          41.06         -36.95          19.67          135.9
    0.6234              -21.94          30.07          81.46          53.71         -12.22          3.532         -81.78          40.98         -36.79          19.66          135.8
    0.6435              -21.98          30.01          81.31          53.68         -12.17          3.503         -81.77          40.89          -36.6          19.66          135.6
    0.6636              -22.03          29.93          81.13          53.65         -12.12          3.471         -81.75          40.79         -36.39          19.66          135.5
    0.6837              -22.08          29.84          80.91           53.6         -12.05          3.432         -81.73          40.67         -36.13          19.65          135.3
    0.7038              -22.15          29.74          80.66          53.55         -11.97          3.387         -81.71          40.52         -35.84          19.65          135.0
    0.7239              -22.22          29.62          80.37           53.5         -11.88          3.333         -81.69          40.35         -35.48          19.64          134.8
     0.744              -22.31          29.47          80.01          53.42         -11.78          3.269         -81.66          40.15         -35.06          19.64          134.4
    0.7641              -22.43           29.3          79.58          53.34         -11.64          3.191         -81.63           39.9         -34.55          19.63          134.0
    0.7843              -22.56          29.08          79.05          53.24         -11.48          3.096         -81.58           39.6         -33.92          19.62          133.5
    0.8044              -22.73          28.81           78.4          53.11         -11.29          2.978         -81.53          39.22         -33.15          19.61          132.9
    0.8245              -22.93          28.48           77.6          52.95         -11.04          2.832         -81.46          38.76         -32.19          19.59          132.1
    0.8446               -23.2          28.06          76.58          52.74         -10.73          2.647         -81.38          38.17         -30.97          19.58          131.1
    0.8647              -23.53          27.53          75.28          52.49         -10.33          2.413         -81.27          37.43         -29.43          19.55          129.9
    0.8848              -23.95          26.84          73.62          52.16         -9.828          2.113         -81.13          36.47         -27.46          19.52          128.3
    0.9049               -24.5          25.97          71.49          51.74          -9.18          1.727         -80.96          35.25         -24.92          19.49          126.3
     0.925               -25.2          24.85          68.77           51.2         -8.351          1.235         -80.74          33.69         -21.69          19.44          123.7
    0.9451              -26.07          23.44          65.35          50.52         -7.309         0.6162         -80.45          31.72         -17.62          19.38          120.5
    0.9652              -27.14          21.73          61.18          49.69         -6.039         -0.138         -80.11          29.33         -12.66           19.3          116.5
    0.9853              -28.38          19.74          56.35          48.74         -4.567         -1.012         -79.71          26.55         -6.913          19.22          111.9
     1.005              -29.72          17.59          51.12           47.7         -2.973         -1.959         -79.28          23.54        -0.6893          19.13          106.9
     1.026              -31.06          15.44          45.89          46.66         -1.379         -2.905         -78.85          20.54          5.534          19.03          101.9
     1.046               -32.3          13.45          41.06          45.71        0.09258         -3.779         -78.45          17.76          11.28          18.95          97.32
     1.066              -33.37          11.73          36.89          44.88          1.362         -4.534         -78.11          15.36          16.24          18.87          93.35
     1.086              -34.25          10.33          33.47           44.2          2.405         -5.153         -77.83           13.4          20.31          18.81           90.1
     1.106              -34.95          9.208          30.75          43.66          3.233         -5.645         -77.61          11.84          23.54          18.77          87.51
     1.126              -35.49          8.332          28.62          43.24          3.882          -6.03         -77.43          10.61          26.08          18.73          85.48
     1.146              -35.92          7.649          26.96          42.91          4.388          -6.33         -77.29          9.658          28.05           18.7           83.9
     1.166              -36.25          7.116          25.67          42.66          4.783         -6.565         -77.19          8.913          29.59          18.68          82.67
     1.186              -36.51          6.696          24.65          42.46          5.093         -6.749          -77.1          8.327          30.81          18.66          81.69
